Coordinates
version=1
nRows=14
nColumns=24
inDegrees=yes

Units are S.I. units (second, meters, Newtons, ...)
Angles are in degrees.

endheader
time	pelvis_tilt	pelvis_list	pelvis_rotation	pelvis_tx	pelvis_ty	pelvis_tz	hip_flexion_r	hip_adduction_r	hip_rotation_r	knee_angle_r	ankle_angle_r	subtalar_angle_r	mtp_angle_r	hip_flexion_l	hip_adduction_l	hip_rotation_l	knee_angle_l	ankle_angle_l	subtalar_angle_l	mtp_angle_l	lumbar_extension	lumbar_bending	lumbar_rotation
      0.74550000	      0.08988702	      2.41155369	      2.96086447	     -0.37451117	      1.08383093	      0.33039086	      8.83360577	      0.25323873	     -3.48313724	    -16.84057728	      8.67466142	     -3.21660165	      7.03766657	     17.08145530	     -1.99569705	     -1.98008317	    -69.05956692	      9.00276592	     10.34059541	      5.79586972	    -14.42947881	      3.94812202	      0.28152788
      0.74966667	      0.11533416	      2.55363725	      2.79425558	     -0.36941754	      1.08470033	      0.33109446	      8.36701433	      0.16973192	     -3.32344774	    -16.52978682	      8.74025995	     -3.17890039	      7.02572046	     17.51192137	     -1.90753355	     -2.16096416	    -68.60557326	      9.25866809	     10.61593088	      5.81884348	    -14.45535692	      3.71599974	      0.42986306
      0.75383333	      0.14547977	      2.69386759	      2.62369993	     -0.36432861	      1.08555437	      0.33180622	      7.89430617	      0.08765676	     -3.15966901	    -16.21375313	      8.79514815	     -3.15067694	      7.01318906	     17.92451937	     -1.82626835	     -2.35139237	    -68.10919633	      9.49178303	     10.83520203	      5.84059856	    -14.48287483	      3.48559719	      0.57552892
      0.75800000	      0.18723187	      2.84081312	      2.44077219	     -0.35925653	      1.08638848	      0.33254596	      7.41309822	     -0.00082129	     -2.97903674	    -15.90024393	      8.85257971	     -3.13793679	      6.99932205	     18.31107783	     -1.74446008	     -2.55511481	    -67.57256429	      9.70363098	     11.03004277	      5.86254234	    -14.52665825	      3.24034903	      0.73198162
      0.76216667	      0.21387565	      2.97084231	      2.26526600	     -0.35418405	      1.08716028	      0.33327526	      6.93801531	     -0.06964128	     -2.77051069	    -15.56363104	      8.90556529	     -3.19277387	      6.96631154	     18.70943679	     -1.68272088	     -2.75406285	    -67.00833122	      9.87682768	     11.18638367	      5.90115066	    -14.55431983	      3.01049766	      1.02139471
      0.76633333	      0.22436561	      3.12549570	      2.08185893	     -0.34911969	      1.08786941	      0.33399685	      6.50090077	     -0.17630387	     -2.60433399	    -15.26823953	      8.95294797	     -3.15521461	      6.95332846	     19.10904276	     -1.59340223	     -2.96754269	    -66.40094353	     10.05110402	     11.28261898	      5.91854287	    -14.55244214	      2.76625869	      1.08108774
      0.77050000	      0.27110741	      3.26358548	      1.89782067	     -0.34408164	      1.08860559	      0.33473083	      6.01432164	     -0.25913664	     -2.39705002	    -14.94728940	      9.01693100	     -3.20241951	      6.92483388	     19.45976639	     -1.52778620	     -3.17810830	    -65.75794227	     10.18855902	     11.37641275	      5.94718115	    -14.59700635	      2.54382696	      1.29275318
      0.77466667	      0.29003669	      3.40841908	      1.71446765	     -0.33904088	      1.08925395	      0.33545823	      5.56566386	     -0.35601343	     -2.20895146	    -14.64050443	      9.06869244	     -3.21432846	      6.90043388	     19.83040669	     -1.45412384	     -3.39258092	    -65.08458535	     10.31708751	     11.41460979	      5.96937387	    -14.60642849	      2.30217282	      1.42320400
      0.77883333	      0.28025414	      3.54687562	      1.53700911	     -0.33400239	      1.08979922	      0.33617616	      5.15229196	     -0.45071510	     -2.03522333	    -14.34043087	      9.11717226	     -3.19474726	      6.88535000	     20.22640714	     -1.38685308	     -3.60173991	    -64.38999239	     10.44235986	     11.42043442	      5.98213999	    -14.58859887	      2.05452714	      1.50403685
      0.78300000	      0.31723655	      3.68412134	      1.36119935	     -0.32899697	      1.09040253	      0.33688484	      4.67884405	     -0.54154903	     -1.82842654	    -14.01806455	      9.18089615	     -3.26489952	      6.84742718	     20.55866363	     -1.31949748	     -3.80435743	    -63.65180279	     10.50779592	     11.37667071	      6.00690415	    -14.62838424	      1.81671044	      1.73922158
      0.78716667	      0.32946635	      3.82772642	      1.18525477	     -0.32398239	      1.09092146	      0.33757915	      4.24443942	     -0.64679279	     -1.64903802	    -13.72249509	      9.24509040	     -3.28031759	      6.81242228	     20.90400695	     -1.24171381	     -4.00628913	    -62.88142464	     10.57952119	     11.31422221	      6.02681832	    -14.63149666	      1.58158656	      1.86840597
      0.79133333	      0.33982319	      3.95498310	      1.01917928	     -0.31899525	      1.09137180	      0.33823953	      3.81430139	     -0.73841138	     -1.47964661	    -13.42831507	      9.31168483	     -3.29926944	      6.77783013	     21.24929505	     -1.17841023	     -4.19480908	    -62.09574859	     10.63664243	     11.22066837	      6.04308780	    -14.63588929	      1.36569222	      1.98920503
      0.79550000	      0.32122405	      4.09307856	      0.85764416	     -0.31399148	      1.09174822	      0.33888867	      3.41962972	     -0.84743621	     -1.33191499	    -13.14321791	      9.37387919	     -3.27006461	      6.76253474	     21.61119324	     -1.10053049	     -4.38215629	    -61.27554010	     10.69818970	     11.11557569	      6.04783770	    -14.60768068	      1.13209209	      2.03309448
      0.79966667	      0.34794046	      4.22551977	      0.69839586	     -0.30903818	      1.09216982	      0.33950091	      2.97514684	     -0.95160023	     -1.16830190	    -12.85340200	      9.45948696	     -3.31171493	      6.72527369	     21.91172246	     -1.01754284	     -4.54823224	    -60.41422005	     10.68710734	     10.91701112	      6.05603187	    -14.63353382	      0.92235985	      2.20196652
